PathFileType	4	(X/Y/Z)	Patient4_TMGait_0pt6_01_left_02.trc.trc
DataRate	CameraRate	NumFrames	NumMarkers	Units	OrigDataRate	OrigDataStartFrame	OrigNumFrames
84.848484848485	84.848484848485	4	33	mm	84.848484848485	36	       141
Frame#	Time	Sacral			L.Shoulder			Chest			R.Shoulder			Neck			R.ASIS			L.ASIS			R.Thigh.Superior			R.Thigh.Lateral			R.Thigh.Inferior			R.Patella			L.Thigh.Superior			L.Thigh.Lateral			L.Thigh.Inferior			L.Patella			L.Shank.Superior			L.Shank.Lateral			L.Shank.Inferior			R.Shank.Superior			R.Shank.Lateral			R.Shank.Inferior			R.Heel			R.Midfoot.Superior			R.Midfoot.Lateral			R.Toe			L.Heel			L.Midfoot.Lateral			L.Midfoot.Superior			L.Toe			L.Elbow			L.Wrist			R.Elbow			R.Wrist			
		X1	Y1	Z1	X2	Y2	Z2	X3	Y3	Z3	X4	Y4	Z4	X5	Y5	Z5	X6	Y6	Z6	X7	Y7	Z7	X8	Y8	Z8	X9	Y9	Z9	X10	Y10	Z10	X11	Y11	Z11	X12	Y12	Z12	X13	Y13	Z13	X14	Y14	Z14	X15	Y15	Z15	X16	Y16	Z16	X17	Y17	Z17	X18	Y18	Z18	X19	Y19	Z19	X20	Y20	Z20	X21	Y21	Z21	X22	Y22	Z22	X23	Y23	Z23	X24	Y24	Z24	X25	Y25	Z25	X26	Y26	Z26	X27	Y27	Z27	X28	Y28	Z28	X29	Y29	Z29	X30	Y30	Z30	X31	Y31	Z31	X32	Y32	Z32	X33	Y33	Z33	

36	2.802500000000	614.062865293390	996.847893645992	460.691622082028	739.781025518372	1425.103961111621	266.658697614652	871.913905057301	1359.239008886648	406.601156976099	817.844223903674	1430.468501491362	592.095595184830	748.669092506983	1485.244392203432	421.402137695537	847.827061363969	927.510831885105	553.356588694201	811.275877108334	955.182095322773	281.680884666982	846.757394349835	714.461912063721	527.335216154292	746.720909344296	618.532806728792	590.706366947241	810.298063443196	551.214070034632	511.903151316509	788.191988239265	451.016821705976	522.939039045491	888.394878267923	764.790176836030	315.698174683866	822.031825428123	636.047330116840	253.343054597837	921.834598810634	573.514891576500	312.588176921289	934.181692493232	502.468135505655	318.065397957135	916.304806821190	427.636566759779	312.176128651989	839.740934089189	301.107184207877	269.021085398635	913.868967633071	199.630510966420	335.557182455677	721.479574703441	380.806266771279	528.948451012077	613.128364239685	317.275877302209	592.248599845583	613.832503448169	211.774825060456	532.813686137226	425.949845257101	94.582606179623	503.043557859601	604.384387681664	103.891947638115	542.938311526948	502.564760900727	62.816548638375	576.609746611094	704.381001102059	35.101217715734	570.424781173313	807.314751438337	38.157022246073	387.771627120369	876.721664969324	34.859443855659	302.572093502704	959.634053262196	98.498541787445	323.093050588098	1086.939434001937	49.476733218131	289.842580225046	649.498627669808	1074.043240921411	181.870780333455	665.394865570780	815.045889874758	177.080993785598	941.791494854226	1100.635513885091	688.410440528222	1173.769794085932	1091.635585260975	586.168905075328	
37	2.814285714286	614.681614783644	998.364684680791	457.647318750828	741.688059905807	1426.403813353383	263.879958380751	872.773005403140	1360.836210410693	404.866485214766	817.342515061063	1432.365118155851	589.803642836237	749.327077360011	1486.728840601799	418.568863399009	847.829214250752	929.201073934098	551.765173525503	812.998898504318	956.587909086331	279.935759493310	849.721778212664	716.230968081846	526.290009426449	751.363359166647	619.011386656150	589.634798550563	816.978050387077	552.112935171330	511.622843804664	795.735595518854	450.356892738714	524.100165225042	888.749828700764	764.942490757326	312.563674343941	819.794879725287	636.543810306058	251.840028003978	919.219423454230	572.899211353204	310.117065005821	930.782343533132	502.096246407088	316.496933497894	912.436111847889	427.344511190233	310.953844857519	834.877503611311	301.383152023644	267.820406632594	907.870898636778	199.444585333259	334.952654986116	726.693450104249	381.361253891446	529.424652906125	615.944559644925	321.430592691673	592.058546727081	614.380925219869	215.491374561164	533.448956662154	423.111166551872	105.127530795405	503.220342895955	601.679600168330	106.295259661989	543.572948636448	498.020281049500	69.436638073006	576.650970005771	697.707357926164	34.319651830458	570.545248182188	800.216972641635	38.163949915910	387.539883011551	869.620219548010	34.834089591189	302.309893951129	952.498214976461	98.453160410950	322.847749292690	1079.802641404617	49.663195417806	289.637463174235	656.973994974658	1073.759573462283	177.984098565331	680.206117484435	815.296772124640	172.603929923958	935.185282162059	1100.361752238555	687.799668419822	1167.014515009399	1078.507913974678	586.253083732360	
38	2.826071428571	615.109344746774	999.808932476561	454.595286988320	743.704730925956	1427.679344533785	261.059337376808	873.568361505111	1362.412240802499	403.215358695214	816.582663075550	1434.208651160493	587.535204331724	749.924010819516	1488.168375844931	415.700731130447	847.684745576442	930.864698874799	550.362048627144	814.611075372310	957.909775629394	278.377893713849	853.162596867828	718.148765865971	525.541417922808	756.609672028457	619.484304820146	588.731504782020	824.441131420669	553.132894872376	511.576076996070	804.051323590501	449.864509105207	525.335550941555	888.709167128600	764.724419227623	309.249670797138	816.954389972676	636.848317949248	250.434797674748	916.037511437618	572.101873842807	307.724176712561	926.835414021989	501.632216578072	314.969130951674	908.083173878816	427.002959227961	309.730195402956	829.575339575282	301.544187933319	266.799520081160	901.642354648457	199.222988539828	334.373903160792	732.767921016638	382.029330342479	529.942072920582	619.694727148487	325.854093156196	591.910006531612	615.628883443233	219.615624853908	534.052103854141	421.099824904850	116.710849525694	503.325360986371	599.383166665884	109.228394531806	544.082937277736	494.023263575585	77.012447949946	576.643766931689	691.212840351233	33.448817653911	570.698785812353	793.053691192617	38.141616869378	387.342309375935	862.457209817420	34.773507078955	302.093239294320	945.318228754832	98.361764340927	322.649043967355	1072.631083345791	49.749772182938	289.473653326282	664.440813794080	1073.630507504429	173.929816721582	695.845739851623	815.977252583498	168.161877169669	928.164894722312	1100.112601313449	687.148604137787	1159.375891130019	1064.871489218714	586.734625100660	
39	2.837857142857	615.327220215254	1001.111238295941	451.581107234856	745.841583645367	1428.857592580059	258.218885555197	874.310022760578	1363.898546962918	401.673620261137	815.577204572707	1435.927138043954	585.317964396710	750.464734056146	1489.500978027501	412.824109979435	847.389979069018	932.414244040242	549.149075283467	816.070708024528	959.104382290322	277.008778667114	857.029238579621	720.185469114689	525.057278116324	762.401985589236	619.957087861559	587.978945465616	832.567014263288	554.284784320293	511.707731344393	813.026031979361	449.566055679772	526.544559414555	888.270899755052	764.169222041716	305.937070357466	813.715199257974	637.014097230649	249.114317978428	912.411770045971	571.185124229178	305.539623767535	922.443073149750	501.092644136284	313.552359473838	903.354288241695	426.620035784691	308.557393233824	823.979480025207	301.603229166051	265.941456472231	895.266842291171	198.967740626891	333.847287133201	739.604628443018	382.817960864872	530.440053311678	624.326200742879	330.507673030096	591.774906008717	617.546387950604	224.128175455268	534.582633603960	419.978156566501	129.175726322454	503.362612586435	597.518153547478	112.740276236469	544.434960027936	490.672349001185	85.481518309542	576.585769738980	685.008564583033	32.563072755725	570.855900961684	785.859835708530	38.103862850999	387.175809798579	855.267387909654	34.690568647871	301.917775502616	938.141511830491	98.220238025771	322.503159610400	1065.461635567065	49.710543773989	289.353073166095	671.909752537606	1073.588292792939	169.692969897294	712.320928659071	817.085290736189	163.809722116121	920.758108035703	1099.802193616345	686.459473911604	1150.800583939420	1050.843298536721	587.643004810996	
